<?xml version="1.0" ?><svg enable-background="new 0 0 32 32" version="1.1" viewBox="0 0 32 32" xml:space="preserve" xmlns="http://www.w3.org/2000/svg" xmlns:xlink="http://www.w3.org/1999/xlink"><g id="GLYPH"><path d="M16,0C8.974,0,3.278,5.696,3.278,12.722c0,5.666,3.706,10.462,8.825,12.108L16,32l3.898-7.169   c5.119-1.647,8.825-6.443,8.825-12.108C28.722,5.696,23.026,0,16,0z M20.592,18.733c-0.612,0.383-1.314,0.621-1.824,0.74   c-0.51,0.118-1.061,0.178-1.654,0.178c-0.619,0-1.218-0.068-1.784-0.255c-0.517-0.17-0.806-0.358-1.172-0.672   c-0.365-0.315-0.542-0.631-0.683-0.986c-0.141-0.353-0.23-1.087-0.23-1.76v-5.05h-1.837V8.631c0.588-0.043,1.074-0.209,1.485-0.558   c0.414-0.352,0.744-0.773,0.993-1.264c0.25-0.492,0.277-1.095,0.277-1.85h2.296v3.673h3.673v2.296h-3.673V14.6   c0,0.853,0.081,1.538,0.172,1.781c0.09,0.241,0.258,0.434,0.505,0.58c0.326,0.196,0.698,0.294,1.118,0.294   c0.745,0,1.612-0.253,2.339-0.818V18.733z"/></g></svg>